# xmcd CD database file
#
# Track frame offsets:
#	150
#	15777
#	35370
#	54317
#	72225
#	92452
#	109667
#	126695
#	156442
#	174205
#	195717
#
# Disc length: 2911 seconds
#
# Revision: 0
# Processed by: cddbd v1.5.1PL0 Copyright (c) Steve Scherf et al.
# Submitted via: CDex 1.51
#
DISCID=860b5d0b
DTITLE=AUDIOVISION - The Calling
DYEAR=2004
DGENRE=Metal
TTITLE0=The Calling
TTITLE1=The King Is Alive
TTITLE2=Evil Or Divine
TTITLE3=The Rock Of My Soul
TTITLE4=Read Between The Lines
TTITLE5=Face To Face
TTITLE6=Show Me The Way
TTITLE7=Love Is Like Oxygen
TTITLE8=Hold Me
TTITLE9=Colors
TTITLE10=Power From The Sky (2000 DEMO Version)
EXTD=YEAR: 2004
EXTT0=
EXTT1=
EXTT2=
EXTT3=
EXTT4=
EXTT5=
EXTT6=
EXTT7=
EXTT8=
EXTT9=
EXTT10=
PLAYORDER=
